<?xml version="1.0" encoding="utf-8"?>
<!DOCTYPE svg PUBLIC "-//W3C//DTD SVG 20010904//EN" "http://www.w3.org/TR/2001/REC-SVG-20010904/DTD/svg10.dtd">
<svg version="1.0" xmlns="http://www.w3.org/2000/svg" width="296pt" height="168pt" viewBox="0 0 296 168" style="background-color:#000000" preserveAspectRatio="xMidYMid meet">
<g fill="#FFFFFFFF" stroke="#FFFFFFFF">
<path d="M 149.000 66.437 C 149.000 67.327 150.237 67.993 152.250 68.187 L 155.500 68.500 155.500 88.500 L 155.500 108.500 152.250 108.813 C 150.237 109.007 149.000 109.673 149.000 110.563 C 149.000 111.732 151.235 112.000 161.000 112.000 C 170.776 112.000 173.000 111.733 173.000 110.560 C 173.000 109.619 171.703 109.013 169.250 108.810 L 165.500 108.500 165.254 102.000 C 165.025 95.977 165.232 95.255 168.075 92.155 C 169.762 90.315 171.237 88.965 171.352 89.155 C 171.468 89.345 174.151 93.456 177.315 98.291 C 180.479 103.126 182.801 107.513 182.475 108.041 C 182.149 108.568 180.559 109.000 178.941 109.000 C 176.993 109.000 176.000 109.507 176.000 110.500 C 176.000 111.791 179.278 112.000 199.500 112.000 C 219.722 112.000 223.000 111.791 223.000 110.500 C 223.000 109.452 221.944 109.000 219.500 109.000 L 216.000 109.000 216.000 98.875 L 216.000 88.750 219.247 89.399 C 224.123 90.375 225.658 92.698 226.822 100.867 C 228.101 109.851 230.484 113.000 236.000 113.000 C 240.519 113.000 243.833 109.807 244.670 104.643 C 245.225 101.226 245.099 101.000 242.631 101.000 C 240.508 101.000 240.000 101.472 240.000 103.441 C 240.000 104.784 239.586 106.138 239.081 106.450 C 238.159 107.020 236.701 103.290 235.502 97.297 C 234.710 93.335 231.420 89.007 229.177 88.978 C 228.255 88.966 229.335 88.122 231.579 87.104 C 240.461 83.069 242.518 75.720 236.579 69.235 L 233.158 65.500 216.079 65.184 C 201.111 64.907 199.000 65.062 199.000 66.434 C 199.000 67.559 199.992 68.000 202.521 68.000 L 206.041 68.000 205.771 88.250 L 205.500 108.500 201.288 108.806 C 198.972 108.974 196.157 108.619 195.032 108.017 C 193.908 107.416 189.332 101.466 184.863 94.796 L 176.738 82.669 183.753 75.833 C 188.247 71.452 191.886 68.773 193.883 68.373 C 195.597 68.031 197.000 67.131 197.000 66.375 C 197.000 65.296 194.742 65.000 186.500 65.000 C 178.060 65.000 176.000 65.281 176.000 66.430 C 176.000 67.217 177.013 68.005 178.250 68.180 C 182.024 68.716 180.862 71.442 173.000 80.500 L 165.500 89.140 165.500 78.820 L 165.500 68.500 169.250 68.190 C 171.703 67.987 173.000 67.381 173.000 66.440 C 173.000 65.267 170.776 65.000 161.000 65.000 C 151.235 65.000 149.000 65.268 149.000 66.437 M 228.177 70.660 C 230.208 72.498 230.664 78.890 228.988 82.022 C 227.968 83.928 222.410 85.984 218.250 85.994 C 216.096 86.000 216.000 85.644 216.000 77.667 C 216.000 73.083 216.338 68.990 216.750 68.571 C 217.951 67.350 226.182 68.855 228.177 70.660 "/></g>
<g fill="#FFFFFFFF" stroke="#FFFFFFFF">
<path d="M 69.927 65.924 C 64.736 68.746 59.283 75.239 57.942 80.193 C 56.458 85.680 57.226 95.579 59.483 100.045 C 63.719 108.428 70.783 113.000 79.500 113.000 C 85.966 113.000 90.943 110.800 95.699 105.838 C 100.334 101.002 102.004 96.201 101.977 87.782 C 101.948 78.764 98.746 72.148 92.187 67.554 C 88.509 64.978 86.815 64.492 80.687 64.257 C 75.087 64.042 72.711 64.410 69.927 65.924 M 86.000 69.876 C 92.264 74.352 93.960 93.911 88.881 103.107 C 84.042 111.870 73.989 111.589 69.895 102.576 C 67.220 96.687 67.275 80.195 69.988 74.216 C 73.126 67.302 79.847 65.481 86.000 69.876 "/></g>
<g fill="#FFFFFFFF" stroke="#FFFFFFFF">
<path d="M 116.500 65.842 C 110.940 69.241 108.667 74.172 109.707 80.580 C 110.614 86.174 114.635 89.343 124.163 91.977 C 128.748 93.244 133.505 94.899 134.734 95.653 C 139.824 98.779 137.891 106.891 131.557 108.981 C 124.763 111.223 116.299 105.191 114.454 96.790 C 113.989 94.674 113.257 94.000 111.421 94.000 C 109.030 94.000 109.000 94.116 109.000 103.500 C 109.000 112.915 109.022 113.000 111.450 113.000 C 112.798 113.000 114.286 112.312 114.757 111.470 C 115.525 110.097 115.988 110.097 119.274 111.470 C 124.293 113.567 132.715 113.427 137.016 111.176 C 140.928 109.128 145.000 102.274 145.000 97.738 C 145.000 90.724 139.760 86.514 127.324 83.538 C 119.803 81.738 117.573 80.173 116.521 75.957 C 115.741 72.830 118.815 68.514 122.476 67.595 C 128.082 66.188 135.110 71.961 136.664 79.250 C 137.104 81.314 137.843 82.000 139.625 82.000 C 141.949 82.000 142.000 81.807 142.000 73.000 C 142.000 64.275 141.930 64.000 139.700 64.000 C 138.435 64.000 136.872 64.528 136.227 65.173 C 135.330 66.070 134.449 66.070 132.480 65.173 C 128.513 63.365 119.965 63.723 116.500 65.842 "/></g>
</svg>
